<svg width="360" height="800" viewBox="0 0 360 800" fill="none" xmlns="http://www.w3.org/2000/svg">
  <defs>
    <radialGradient id="bg" cx="50%" cy="45%" r="70%"><stop offset="0" stop-color="#0A0A12"/><stop offset="1" stop-color="#000000"/></radialGradient>
    <linearGradient id="purple" x1="0" y1="0" x2="1" y2="1"><stop stop-color="#6A3BD7"/><stop offset="1" stop-color="#9567FD"/></linearGradient>
    <filter id="glow"><feGaussianBlur stdDeviation="10" result="b"/><feMerge><feMergeNode in="b"/><feMergeNode in="SourceGraphic"/></feMerge></filter>
  </defs>
  <rect width="360" height="800" fill="url(#bg)"/>
  <circle cx="300" cy="128" r="92" fill="#6A3BD7" opacity=".12" filter="url(#glow)"/>
  <text x="18" y="80" fill="white" font-family="Poppins, Arial" font-weight="700" font-size="26">Goals</text>
  <text x="18" y="99" fill="#8A8A9A" font-family="Poppins, Arial" font-size="12">Rencanakan target finansialmu</text>
  <rect x="304" y="62" width="40" height="40" rx="18" fill="url(#purple)" opacity=".8"/><text x="316" y="91" fill="white" font-size="30">+</text>
  <rect x="18" y="116" width="324" height="126" rx="24" fill="#120F22" stroke="#30264C" opacity=".95"/>
  <circle cx="60" cy="162" r="30" stroke="#1A1830" stroke-width="9"/><path d="M60 132 A30 30 0 0 1 78 186" stroke="#9567FD" stroke-width="9" stroke-linecap="round"/><text x="45" y="169" fill="white" font-size="15" font-weight="700">45%</text>
  <text x="102" y="143" fill="#A3AEC4" font-size="10" font-weight="600">Progress semua goals</text><text x="102" y="164" fill="white" font-size="16" font-weight="700">Rp 4.500.000</text><text x="244" y="164" fill="#A78BFA" font-size="10" font-weight="700">tersimpan</text><text x="102" y="181" fill="#8A8A9A" font-size="11">dari total <tspan fill="#A78BFA" font-weight="700">Rp 10.000.000</tspan> target</text>
  <rect x="280" y="129" width="49" height="59" rx="14" fill="#1B1435"/><text x="300" y="156" fill="#A78BFA">⚑</text><text x="300" y="173" fill="white" font-size="16" font-weight="700">3</text><text x="288" y="185" fill="#A3AEC4" font-size="8">Total goals</text>
  <rect x="34" y="202" width="292" height="7" rx="4" fill="#1D1B30"/><rect x="34" y="202" width="132" height="7" rx="4" fill="#9567FD"/><text x="34" y="226" fill="#A3AEC4" font-size="11">Sisa Rp 5.500.000 lagi</text><text x="305" y="226" fill="#A78BFA" font-size="12" font-weight="700">45%</text>
  <rect x="18" y="255" width="324" height="36" rx="18" fill="#10101A" stroke="#27213B"/><rect x="20" y="257" width="76" height="32" rx="16" fill="url(#purple)"/><text x="43" y="279" fill="white" font-size="12" font-weight="700">Semua</text><text x="122" y="279" fill="#A3AEC4" font-size="12" font-weight="700">Wishlist</text><text x="204" y="279" fill="#A3AEC4" font-size="12" font-weight="700">Saving</text><text x="290" y="279" fill="#A3AEC4" font-size="12" font-weight="700">Debt</text>
  <text x="18" y="321" fill="white" font-size="13" font-weight="700">Goals aktif</text><text x="284" y="321" fill="#A3AEC4" font-size="10">Urutkan ⚙</text>
  <g font-family="Poppins, Arial">
    <rect x="18" y="335" width="324" height="86" rx="20" fill="#12121E" stroke="#32264B"/><circle cx="54" cy="378" r="24" fill="#261D48" stroke="#6B54A2"/><text x="44" y="387" fill="#A78BFA" font-size="24">◎</text><text x="89" y="360" fill="white" font-size="12" font-weight="700">Dana Darurat</text><rect x="166" y="347" width="42" height="17" rx="8" fill="#8B5CF6"/><text x="174" y="359" fill="white" font-size="8">Saving</text><text x="89" y="376" fill="#A3AEC4" font-size="10">Keamanan finansial utama</text><rect x="89" y="388" width="158" height="5" rx="3" fill="#1D1B30"/><rect x="89" y="388" width="71" height="5" rx="3" fill="#9567FD"/><text x="89" y="410" fill="#A3AEC4" font-size="10">Rp 4.500.000 / Rp 10.000.000</text><text x="274" y="359" fill="#A78BFA" font-size="18" font-weight="700">45%</text><text x="274" y="386" fill="#A3AEC4" font-size="10">Sisa<br/>Rp 5.500.000</text><text x="274" y="411" fill="#A3AEC4" font-size="8">▣ 31 Des 2025</text>
    <rect x="18" y="430" width="324" height="86" rx="20" fill="#12121E" stroke="#32264B"/><circle cx="54" cy="473" r="24" fill="#2E1E3B"/><text x="44" y="482" fill="#F472B6" font-size="23">▱</text><text x="89" y="455" fill="white" font-size="12" font-weight="700">Beli Laptop</text><rect x="154" y="442" width="50" height="17" rx="8" fill="#D65B9E"/><text x="162" y="454" fill="white" font-size="8">Wishlist</text><text x="89" y="471" fill="#A3AEC4" font-size="10">Untuk produktivitas kerja</text><rect x="89" y="483" width="158" height="5" rx="3" fill="#1D1B30"/><rect x="89" y="483" width="39" height="5" rx="3" fill="#D65B9E"/><text x="89" y="505" fill="#A3AEC4" font-size="10">Rp 2.000.000 / Rp 8.000.000</text><text x="274" y="454" fill="#F472B6" font-size="18" font-weight="700">25%</text><text x="274" y="481" fill="#A3AEC4" font-size="10">Sisa<br/>Rp 6.000.000</text><text x="274" y="506" fill="#A3AEC4" font-size="8">▣ 15 Mar 2026</text>
    <rect x="18" y="525" width="324" height="86" rx="20" fill="#12121E" stroke="#32264B"/><circle cx="54" cy="568" r="24" fill="#1F1F37"/><text x="43" y="578" fill="#A78BFA" font-size="22">✈</text><text x="89" y="550" fill="white" font-size="12" font-weight="700">Liburan ke Jepang</text><rect x="190" y="537" width="50" height="17" rx="8" fill="#D65B9E"/><text x="198" y="549" fill="white" font-size="8">Wishlist</text><text x="89" y="566" fill="#A3AEC4" font-size="10">Trip impian musim semi</text><rect x="89" y="578" width="158" height="5" rx="3" fill="#1D1B30"/><text x="89" y="600" fill="#A3AEC4" font-size="10">Rp 0 / Rp 15.000.000</text><text x="274" y="549" fill="#F472B6" font-size="18" font-weight="700">0%</text><text x="274" y="576" fill="#A3AEC4" font-size="10">Sisa<br/>Rp 15.000.000</text><text x="274" y="601" fill="#A3AEC4" font-size="8">▣ 01 Apr 2027</text>
  </g>
  <rect x="18" y="626" width="324" height="92" rx="24" fill="#0C0C18" stroke="#46247A"/><circle cx="57" cy="672" r="29" fill="#07040B"/><text x="42" y="681" font-size="30">🤖</text><text x="94" y="650" fill="#A78BFA" font-size="11" font-weight="700">✦ Nexora AI</text><rect x="159" y="637" width="29" height="17" rx="8" fill="#6A3BD7"/><text x="169" y="649" fill="white" font-size="8">AI</text><text x="94" y="671" fill="white" font-size="13" font-weight="700">Butuh bantuan capai goals?</text><text x="94" y="688" fill="#A3AEC4" font-size="10">AI akan menganalisis kebiasaanmu dan</text><text x="94" y="702" fill="#A3AEC4" font-size="10">membuat rencana khusus untukmu.</text><text x="94" y="716" fill="#A78BFA" font-size="10" font-weight="700">Lihat rekomendasi →</text>
  <rect x="18" y="728" width="324" height="48" rx="24" fill="#0D111C" stroke="#2B2441"/><circle cx="178" cy="734" r="31" fill="#9567FD" filter="url(#glow)"/><text x="167" y="745" fill="white" font-size="34">+</text><text x="42" y="756" fill="#8A8A9A" font-size="9">⌂<tspan x="36" y="770">Home</tspan></text><text x="107" y="756" fill="#8A8A9A" font-size="9">↔<tspan x="91" y="770">Transaksi</tspan></text><text x="238" y="756" fill="#8A8A9A" font-size="9">▣<tspan x="231" y="770">Wallet</tspan></text><rect x="286" y="733" width="44" height="39" rx="20" fill="#4B3580"/><text x="304" y="752" fill="white" font-size="15">◎</text><text x="295" y="768" fill="white" font-size="9" font-weight="700">Goals</text>
</svg>
